M48
;Layer_Color=9474304
;FILE_FORMAT=2:5
INCH,LZ
;TYPE=PLATED
T1F00S00C0.02000
T2F00S00C0.02756
T3F00S00C0.03937
T4F00S00C0.04016
T5F00S00C0.04252
T6F00S00C0.04331
T7F00S00C0.05000
T8F00S00C0.05512
T9F00S00C0.07000
T11F00S00C0.12000
%
T01
X0045Y00315
X01035Y004
X0102Y00465
X0142Y00615
X01939Y00581
X02069Y005
X02282Y0052
X0238Y00492
X0253Y00215
X0412Y01885
X0435Y01855
X04577Y01935
X04815Y0197
X0511Y0202
Y01845
X0528Y01963
X0249Y0146464
X0217615Y0103805
X022Y00983
X02109Y01017
X02075Y007
X01966Y00735
X0189Y0075
X01695Y00725
X0151Y0071
X01498Y00837
X01285Y00675
X01078Y00735
X01056Y00795
X009211Y00783
X00985Y00965
X0106Y0098
X0074Y0069
X00774Y02124
X0104Y02105
X01212Y01778
X0173Y01774
X0189Y01305
X0062Y0277
X00628Y02997
X00277Y02949
X00305Y02775
X00735Y0281
X00665Y02615
X00697Y02491
X00774Y02469
X0086Y02503
X0084Y02615
X01045Y02505
X012Y02903
X0118Y02975
X0135Y0302
X0147Y03025
X01495Y02955
X01442Y03385
X01455Y0345
X014Y0351
X01285Y0349
X01088Y03358
X00915Y03355
X00852Y03092
X04755Y0302858
X04705Y02784
X04955Y02378
X04891Y02245
T02
X0479642Y0317
X0489642
X0499642
X0509642
X0519642
X0529642
Y0377
X0519642
X0509642
X0499642
X0489642
X0479642
T03
X0495657Y0066472
X05055
X0515343
Y0123559
X0495657
T04
X00275Y00445
X00375
Y00545
X00275
X00955Y00155
X01055
X009Y01195
Y01295
X008
X007
Y01195
X008
X00375Y00845
Y00745
Y00645
X00275
Y00745
Y00845
X0382142Y02425
X0392142
X0402142
X0412142
X0422142
Y02525
X0412142
X0402142
X0392142
X0382142
T05
X0251264Y01815
X02615
X0271343
T06
X0059Y00155
X0069
X0079
X01205
X01305
X01405
X01505
X01605
Y0029
X01505
X01405
X01435Y01195
X01335
X01235
X01135
X00405Y01215
X00305
X00205
X00325Y0174157
Y0193843
X00335Y0318
Y0337685
X0094657Y03835
X0114343
X0062685Y0384
X0043
T07
X02045Y02375
Y027687
T08
X0184421Y0347
X02445
X0264343
X0284185
Y0376528
X0264343
X02445
X0184421
T09
X027Y00215
X02695Y00665
X02585Y01515
X02215Y01385
X0228Y0187
X0187Y02045
T11
X001Y001
X03425
X03625
X06525Y00125
Y0405
X03625
X03425
X001
M30
