G04*
G04 #@! TF.GenerationSoftware,Altium Limited,Altium Designer,23.2.1 (34)*
G04*
G04 Layer_Color=16711935*
%FSLAX25Y25*%
%MOIN*%
G70*
G04*
G04 #@! TF.SameCoordinates,A037187A-46A6-4B3A-B22B-D3DDD371AF81*
G04*
G04*
G04 #@! TF.FilePolarity,Negative*
G04*
G01*
G75*
%ADD35C,0.06102*%
%ADD36R,0.06102X0.06102*%
G04:AMPARAMS|DCode=37|XSize=94.49mil|YSize=196.85mil|CornerRadius=47.24mil|HoleSize=0mil|Usage=FLASHONLY|Rotation=0.000|XOffset=0mil|YOffset=0mil|HoleType=Round|Shape=RoundedRectangle|*
%AMROUNDEDRECTD37*
21,1,0.09449,0.10236,0,0,0.0*
21,1,0.00000,0.19685,0,0,0.0*
1,1,0.09449,0.00000,-0.05118*
1,1,0.09449,0.00000,-0.05118*
1,1,0.09449,0.00000,0.05118*
1,1,0.09449,0.00000,0.05118*
%
%ADD37ROUNDEDRECTD37*%
%ADD38C,0.03556*%
%ADD39C,0.04816*%
%ADD40C,0.05800*%
%ADD41C,0.12800*%
%ADD42C,0.06312*%
%ADD43R,0.06181X0.06181*%
%ADD44C,0.06181*%
%ADD45C,0.05131*%
%ADD46C,0.05052*%
%ADD47C,0.02800*%
%ADD48C,0.07800*%
D35*
X515343Y123559D02*
D03*
X495657Y66472D02*
D03*
X505500D02*
D03*
X515343D02*
D03*
D36*
X495657Y123559D02*
D03*
D37*
X483059Y96000D02*
D03*
X527941D02*
D03*
D38*
X529642Y317000D02*
D03*
X519642D02*
D03*
X509642D02*
D03*
X499642D02*
D03*
X489642D02*
D03*
X479642D02*
D03*
Y377000D02*
D03*
X489642D02*
D03*
X499642D02*
D03*
X509642D02*
D03*
X519642D02*
D03*
X529642D02*
D03*
D39*
X382142Y242500D02*
D03*
X392142D02*
D03*
X402142D02*
D03*
X412142D02*
D03*
X422142D02*
D03*
X382142Y252500D02*
D03*
X392142D02*
D03*
X402142D02*
D03*
X412142D02*
D03*
X422142D02*
D03*
X37500Y44500D02*
D03*
Y54500D02*
D03*
Y64500D02*
D03*
Y74500D02*
D03*
Y84500D02*
D03*
X27500Y44500D02*
D03*
Y54500D02*
D03*
Y64500D02*
D03*
Y74500D02*
D03*
Y84500D02*
D03*
D40*
X204500Y237500D02*
D03*
Y276870D02*
D03*
D41*
X10000Y405000D02*
D03*
X342500D02*
D03*
X362500D02*
D03*
X652500D02*
D03*
Y12500D02*
D03*
X362500Y10000D02*
D03*
X342500D02*
D03*
X10000D02*
D03*
D42*
X184421Y347000D02*
D03*
X244500D02*
D03*
X264343D02*
D03*
X284185D02*
D03*
Y376528D02*
D03*
X264343D02*
D03*
X244500D02*
D03*
X184421D02*
D03*
D43*
X90000Y129500D02*
D03*
X95500Y15500D02*
D03*
D44*
X80000Y129500D02*
D03*
X70000D02*
D03*
X90000Y119500D02*
D03*
X80000D02*
D03*
X70000D02*
D03*
X105500Y15500D02*
D03*
D45*
X40500Y121500D02*
D03*
X30500D02*
D03*
X20500D02*
D03*
X140500Y15500D02*
D03*
X120500D02*
D03*
X130500D02*
D03*
X150500D02*
D03*
X160500D02*
D03*
X32500Y174157D02*
D03*
Y193843D02*
D03*
X79000Y15500D02*
D03*
X69000D02*
D03*
X59000D02*
D03*
X133500Y119500D02*
D03*
X143500D02*
D03*
X123500D02*
D03*
X113500D02*
D03*
X140500Y29000D02*
D03*
X150500D02*
D03*
X160500D02*
D03*
X33500Y318000D02*
D03*
Y337685D02*
D03*
X43000Y384000D02*
D03*
X62685D02*
D03*
X94657Y383500D02*
D03*
X114343D02*
D03*
D46*
X271343Y181500D02*
D03*
X261500D02*
D03*
X251264D02*
D03*
D47*
X102000Y46500D02*
D03*
X98500Y96500D02*
D03*
X207500Y70000D02*
D03*
X91500Y335500D02*
D03*
X30500Y277500D02*
D03*
X104500Y250500D02*
D03*
X62000Y277000D02*
D03*
X84000Y261500D02*
D03*
X66500D02*
D03*
X149500Y295500D02*
D03*
X147000Y302500D02*
D03*
X135000Y302000D02*
D03*
X140000Y351000D02*
D03*
X128500Y349000D02*
D03*
X169500Y72500D02*
D03*
X151000Y71000D02*
D03*
X495500Y237800D02*
D03*
X489100Y224500D02*
D03*
X475500Y302858D02*
D03*
X470500Y278400D02*
D03*
X173000Y177400D02*
D03*
X144200Y338500D02*
D03*
X193900Y58100D02*
D03*
X128500Y67500D02*
D03*
X121200Y177800D02*
D03*
X220000Y98300D02*
D03*
X249000Y146464D02*
D03*
X412000Y188500D02*
D03*
X457700Y193500D02*
D03*
X511000Y202000D02*
D03*
Y184500D02*
D03*
X435000Y185500D02*
D03*
X481500Y197000D02*
D03*
X528000Y196300D02*
D03*
X142000Y61500D02*
D03*
X238000Y49200D02*
D03*
X206900Y50000D02*
D03*
X105600Y79500D02*
D03*
X228200Y52000D02*
D03*
X217615Y103805D02*
D03*
X120000Y290300D02*
D03*
X145500Y345000D02*
D03*
X27700Y294900D02*
D03*
X73500Y281000D02*
D03*
X45000Y31500D02*
D03*
X107800Y73500D02*
D03*
X106000Y98000D02*
D03*
X149800Y83700D02*
D03*
X92110Y78300D02*
D03*
X62800Y299700D02*
D03*
X118000Y297500D02*
D03*
X189000Y75000D02*
D03*
Y130500D02*
D03*
X86000Y250300D02*
D03*
X74000Y69000D02*
D03*
X104000Y210500D02*
D03*
X85200Y309200D02*
D03*
X108800Y335800D02*
D03*
X103500Y40000D02*
D03*
X196600Y73500D02*
D03*
X210900Y101700D02*
D03*
X69700Y249100D02*
D03*
X77400Y246900D02*
D03*
Y212400D02*
D03*
X253000Y21500D02*
D03*
D48*
X270000D02*
D03*
X269500Y66500D02*
D03*
X258500Y151500D02*
D03*
X221500Y138500D02*
D03*
X228000Y187000D02*
D03*
X187000Y204500D02*
D03*
M02*
