G04*
G04 #@! TF.GenerationSoftware,Altium Limited,Altium Designer,23.2.1 (34)*
G04*
G04 Layer_Physical_Order=2*
G04 Layer_Color=16711680*
%FSLAX25Y25*%
%MOIN*%
G70*
G04*
G04 #@! TF.SameCoordinates,A037187A-46A6-4B3A-B22B-D3DDD371AF81*
G04*
G04*
G04 #@! TF.FilePolarity,Positive*
G04*
G01*
G75*
%ADD35C,0.06102*%
%ADD36R,0.06102X0.06102*%
G04:AMPARAMS|DCode=37|XSize=94.49mil|YSize=196.85mil|CornerRadius=47.24mil|HoleSize=0mil|Usage=FLASHONLY|Rotation=0.000|XOffset=0mil|YOffset=0mil|HoleType=Round|Shape=RoundedRectangle|*
%AMROUNDEDRECTD37*
21,1,0.09449,0.10236,0,0,0.0*
21,1,0.00000,0.19685,0,0,0.0*
1,1,0.09449,0.00000,-0.05118*
1,1,0.09449,0.00000,-0.05118*
1,1,0.09449,0.00000,0.05118*
1,1,0.09449,0.00000,0.05118*
%
%ADD37ROUNDEDRECTD37*%
%ADD43R,0.06181X0.06181*%
%ADD44C,0.06181*%
%ADD60C,0.02000*%
%ADD61C,0.07000*%
%ADD62C,0.00900*%
%ADD63C,0.04331*%
%ADD64R,0.04331X0.04331*%
%ADD65C,0.10000*%
%ADD66C,0.08268*%
%ADD67R,0.06102X0.06102*%
%ADD68R,0.06299X0.06299*%
%ADD69C,0.06299*%
%ADD70R,0.06299X0.06299*%
%ADD71C,0.05980*%
%ADD72C,0.02400*%
%ADD73C,0.07500*%
D35*
X515343Y123559D02*
D03*
X495657Y66472D02*
D03*
X505500D02*
D03*
X515343D02*
D03*
X392142Y242500D02*
D03*
X402142D02*
D03*
X412142D02*
D03*
X422142D02*
D03*
X382142Y252500D02*
D03*
X392142D02*
D03*
X402142D02*
D03*
X412142D02*
D03*
X422142D02*
D03*
X37500Y44500D02*
D03*
Y54500D02*
D03*
Y64500D02*
D03*
Y74500D02*
D03*
Y84500D02*
D03*
X27500Y44500D02*
D03*
Y54500D02*
D03*
Y64500D02*
D03*
Y74500D02*
D03*
D36*
X495657Y123559D02*
D03*
X382142Y242500D02*
D03*
D37*
X483059Y96000D02*
D03*
X527941D02*
D03*
D43*
X90000Y129500D02*
D03*
X95500Y15500D02*
D03*
D44*
X80000Y129500D02*
D03*
X70000D02*
D03*
X90000Y119500D02*
D03*
X80000D02*
D03*
X70000D02*
D03*
X105500Y15500D02*
D03*
D60*
X505500Y66472D02*
X515343Y76315D01*
Y123559D01*
X481500Y197000D02*
X495657Y182843D01*
Y123559D02*
Y182843D01*
X104540Y335500D02*
X108540Y339500D01*
X91454Y335500D02*
X104540D01*
X133000Y349000D02*
X135000Y351000D01*
X128500Y349000D02*
X133000D01*
X135000Y351000D02*
X139392D01*
X108000Y278300D02*
X120000Y290300D01*
X69700Y249100D02*
X77400Y241400D01*
X474700Y258600D02*
X495500Y237800D01*
X388242Y258600D02*
X474700D01*
X382142Y252500D02*
X388242Y258600D01*
X465900Y247700D02*
X489100Y224500D01*
X396942Y247700D02*
X465900D01*
X392142Y252500D02*
X396942Y247700D01*
X475500Y302858D02*
X489642Y317000D01*
X470500Y278400D02*
X483200D01*
X499642Y294842D01*
Y317000D01*
X90000Y119500D02*
X103209D01*
X111709Y111000D01*
X135000D01*
X143500Y119500D01*
X173000Y149000D01*
Y177400D01*
X108540Y339500D02*
X138800D01*
X139800Y338500D01*
X144200D01*
X20500Y121500D02*
X27500Y128500D01*
X61000D01*
X64909Y124591D01*
Y131609D01*
X96509Y136491D02*
X113500Y119500D01*
X64909Y124591D02*
X70000Y119500D01*
X64909Y131609D02*
X69791Y136491D01*
X96509D01*
X113500Y119500D02*
Y170100D01*
X121200Y177800D01*
X207000Y70500D02*
X207077Y70125D01*
X207000Y70500D02*
Y70608D01*
X205500Y72108D02*
X207000Y70608D01*
X205500Y72108D02*
Y83800D01*
X220000Y98300D01*
X249000Y146464D02*
Y153529D01*
X248300Y154229D02*
X249000Y153529D01*
X248300Y154229D02*
Y177638D01*
X251264Y180602D01*
Y181500D01*
X402142Y190158D02*
Y242500D01*
Y190158D02*
X410899Y181401D01*
X419963D01*
X427262Y188700D01*
X436325D01*
X481300Y143725D01*
Y117000D02*
Y143725D01*
Y117000D02*
X495657Y102643D01*
Y66472D02*
Y102643D01*
X412000Y188500D02*
X412077Y188577D01*
Y190935D01*
X412142Y191000D01*
Y242500D01*
X457700Y193500D02*
X466200Y202000D01*
X511000D01*
Y150500D02*
Y184500D01*
Y150500D02*
X537500Y124000D01*
Y88630D02*
Y124000D01*
X515343Y66472D02*
X537500Y88630D01*
X392142Y190258D02*
Y242500D01*
Y190258D02*
X405900Y176500D01*
X426000D01*
X435000Y185500D01*
X481500Y197000D02*
X525300D01*
X526300Y198000D01*
X528000Y196300D01*
X149000Y295000D02*
X149500D01*
X111500Y257500D02*
X149000Y295000D01*
X83182Y257500D02*
X111500D01*
X65000Y275682D02*
X83182Y257500D01*
X63427Y275682D02*
X65000D01*
X62108Y277000D02*
X63427Y275682D01*
X83923Y261431D02*
X84000Y260500D01*
X84500Y260000D01*
X105000D01*
X146700Y301700D01*
X30392Y277500D02*
X30500D01*
X39000Y286000D01*
X66036D01*
X67747Y284288D01*
Y282934D02*
Y284288D01*
Y282934D02*
X72382Y278300D01*
X108000D01*
X131123Y301423D02*
X134923D01*
X120000Y290300D02*
X131123Y301423D01*
X113596Y345000D02*
X145500D01*
X111596Y347000D02*
X113596Y345000D01*
X79800Y347000D02*
X111596D01*
X27700Y294900D02*
X79800Y347000D01*
X27700Y294900D02*
X60671D01*
X70247Y285324D01*
Y284253D02*
Y285324D01*
Y284253D02*
X73500Y281000D01*
X53000Y31500D02*
X69000Y15500D01*
X45000Y31500D02*
X53000D01*
X113300Y297500D02*
X118000D01*
X62800Y299700D02*
X111100D01*
X113300Y297500D01*
X189000Y75000D02*
Y130500D01*
X86000Y250300D02*
X104192D01*
X101971Y46029D02*
X124150Y23850D01*
X159432D01*
X164983Y18300D01*
X254325D01*
X279333Y43307D01*
Y184810D01*
X252059Y212084D02*
X279333Y184810D01*
X220017Y212084D02*
X252059D01*
X197500Y234601D02*
X220017Y212084D01*
X197500Y234601D02*
Y246910D01*
X211500Y260910D01*
Y279769D01*
X183523Y307746D02*
X211500Y279769D01*
X136854Y307746D02*
X183523D01*
X108800Y335800D02*
X136854Y307746D01*
X85200Y312200D02*
X108800Y335800D01*
X85200Y309200D02*
Y312200D01*
X66000Y261000D02*
X66077Y261431D01*
X14558Y209558D02*
X66000Y261000D01*
X14558Y125508D02*
Y209558D01*
X13450Y124401D02*
X14558Y125508D01*
X13450Y118599D02*
Y124401D01*
Y118599D02*
X14558Y117492D01*
Y50299D02*
Y117492D01*
Y50299D02*
X27357Y37500D01*
X60729D01*
X64729Y41500D01*
X102000D01*
X103500Y40000D01*
X198000Y74900D02*
Y95000D01*
X204700Y101700D01*
X196600Y73500D02*
X198000Y74900D01*
X204700Y101700D02*
X210900D01*
X123100Y241100D02*
X158870Y276870D01*
X204500D01*
X77700Y241100D02*
X123100D01*
X77400Y241400D02*
Y246900D01*
Y241400D02*
X77700Y241100D01*
X77400Y212400D02*
Y241400D01*
X204500Y258153D02*
Y276870D01*
X194500Y248153D02*
X204500Y258153D01*
X194500Y233358D02*
Y248153D01*
Y233358D02*
X218774Y209084D01*
X250816D01*
X276333Y183567D01*
Y179433D02*
Y183567D01*
X275350Y178450D02*
X276333Y179433D01*
X275350Y43850D02*
Y178450D01*
X253000Y21500D02*
X275350Y43850D01*
D61*
X270000Y22000D02*
X271500Y22500D01*
X270000Y22000D02*
Y22135D01*
X271500Y22500D02*
X284433Y35433D01*
X220269Y139596D02*
X221365Y138500D01*
X201699Y157301D02*
X219404Y139596D01*
X221365Y138500D02*
X221500D01*
X219404Y139596D02*
X220269D01*
X201699Y157301D02*
X201699D01*
X187000Y172000D02*
X201699Y157301D01*
X187000Y172000D02*
Y204500D01*
X61185Y383500D02*
X65000Y379685D01*
X253300Y173300D02*
X261500Y181500D01*
X253300Y167501D02*
Y173300D01*
Y167501D02*
X258404Y162397D01*
Y152096D02*
Y162397D01*
X284433Y35433D02*
Y186922D01*
X264343Y207012D02*
X284433Y186922D01*
X264343Y207012D02*
Y347000D01*
Y364317D01*
X253134Y375526D02*
X264343Y364317D01*
X253134Y375526D02*
Y380104D01*
X246838Y386400D02*
X253134Y380104D01*
X117243Y386400D02*
X246838D01*
X114343Y383500D02*
X117243Y386400D01*
X65000Y370101D02*
Y379685D01*
Y370101D02*
X69101Y366000D01*
X233972D01*
X244500Y376528D01*
X227900Y187000D02*
X227996Y187496D01*
X227900Y153600D02*
Y187000D01*
Y153600D02*
X252600Y128900D01*
Y74702D02*
Y128900D01*
Y74702D02*
X260707Y66596D01*
X269404D01*
X264343Y376528D02*
Y376871D01*
X261134Y380079D02*
X264343Y376871D01*
X261134Y380079D02*
Y383418D01*
X243051Y401500D02*
X261134Y383418D01*
X112657Y401500D02*
X243051D01*
X94657Y383500D02*
X112657Y401500D01*
X233500Y358000D02*
X244500Y347000D01*
X57500Y358000D02*
X233500D01*
X57500D02*
Y367500D01*
X43000Y382000D02*
X57500Y367500D01*
X43000Y382000D02*
Y384000D01*
D62*
X223618Y99885D02*
G03*
X221694Y101868I-3618J-1585D01*
G01*
X23437Y62563D02*
G03*
X25563Y60437I4063J1937D01*
G01*
X17986Y125352D02*
G03*
X18296Y117463I2514J-3852D01*
G01*
X19338Y116401D02*
G03*
X19338Y116402I-900J1D01*
G01*
X19336Y116354D02*
G03*
X19337Y116365I-899J48D01*
G01*
X228200Y90100D02*
X242000Y76300D01*
X223618Y99885D02*
X223618D01*
X217615Y103805D02*
X223618Y99885D01*
X88310Y74500D02*
X92110Y78300D01*
X25563Y60437D02*
X26001Y59999D01*
X23437Y62563D02*
X25563Y60437D01*
X17986Y125352D02*
X19310Y126216D01*
X19338Y116401D02*
X19338Y116774D01*
X19336Y116354D02*
X19338Y116381D01*
X17139Y68861D02*
X23437Y62563D01*
X27500Y84500D02*
X31901D01*
X32999Y85598D01*
Y86364D01*
X49086Y102451D01*
X59373D01*
X74541Y117619D01*
Y130462D01*
X78119Y134041D01*
X81881D01*
X85435Y130486D01*
Y124065D02*
Y130486D01*
Y124065D02*
X90000Y119500D01*
X113700Y82300D02*
X128500Y67500D01*
X184500D01*
X193900Y58100D01*
X98241Y96241D02*
X98500Y96500D01*
X112700Y82300D01*
X113700D01*
X142000Y61500D02*
X157500Y46000D01*
X234800D01*
X238000Y49200D01*
X80000Y129500D02*
X80862Y128638D01*
Y125059D02*
Y128638D01*
Y125059D02*
X84565Y121356D01*
Y118514D02*
Y121356D01*
Y118514D02*
X97560Y105518D01*
X149582D01*
X189000Y66100D01*
X204800D01*
X206900Y64000D01*
Y50000D02*
Y64000D01*
X105600Y79500D02*
X107650Y77450D01*
X111750D01*
X120959Y68241D01*
Y62079D02*
Y68241D01*
Y62079D02*
X146356Y36681D01*
X153831D01*
X155100Y37950D01*
X235650D01*
X242000Y44300D01*
Y76300D01*
X223618Y99885D02*
X227673Y90627D01*
X228200Y52000D02*
Y90100D01*
X227673Y90627D02*
X228200Y90100D01*
X217615Y103805D02*
X223618Y99885D01*
X107800Y71700D02*
X150500Y29000D01*
X107800Y71700D02*
Y73500D01*
X80000Y119500D02*
X80520D01*
X102020Y98000D01*
X106000D01*
X37500Y74500D02*
X88310D01*
X94500Y80690D02*
Y95541D01*
X97609Y98650D01*
X99391D01*
X114341Y83700D02*
X149800D01*
X92110Y78300D02*
X94500Y80690D01*
X99391Y98650D02*
X114341Y83700D01*
X17139Y69255D02*
X19336Y116354D01*
X17139Y68861D02*
Y69255D01*
X19338Y116381D02*
Y116774D01*
X19074Y117038D02*
X19338Y116774D01*
X18296Y117463D02*
X19074Y117038D01*
X26001Y59999D02*
X64499D01*
X70500Y66000D01*
X71000D01*
X74000Y69000D01*
X19310Y126216D02*
X19821Y126726D01*
X19948Y129448D01*
X21450Y130950D01*
X28450D01*
X104000Y206500D01*
Y210500D01*
X151094Y71000D02*
X167594D01*
X169094Y72500D01*
D63*
X529642Y317000D02*
D03*
X519642D02*
D03*
X509642D02*
D03*
X499642D02*
D03*
X489642D02*
D03*
X479642D02*
D03*
Y377000D02*
D03*
X489642D02*
D03*
X499642D02*
D03*
X509642D02*
D03*
X519642D02*
D03*
D64*
X529642D02*
D03*
D65*
X204500Y237500D02*
D03*
Y276870D02*
D03*
X10000Y405000D02*
D03*
X342500D02*
D03*
X362500D02*
D03*
X652500D02*
D03*
Y12500D02*
D03*
X362500Y10000D02*
D03*
X342500D02*
D03*
X10000D02*
D03*
D66*
X184421Y347000D02*
D03*
X244500D02*
D03*
X264343D02*
D03*
X284185D02*
D03*
Y376528D02*
D03*
X264343D02*
D03*
X244500D02*
D03*
X184421D02*
D03*
D67*
X27500Y84500D02*
D03*
D68*
X40500Y121500D02*
D03*
X120500Y15500D02*
D03*
X79000D02*
D03*
X143500Y119500D02*
D03*
X140500Y29000D02*
D03*
X62685Y384000D02*
D03*
X114343Y383500D02*
D03*
D69*
X30500Y121500D02*
D03*
X20500D02*
D03*
X140500Y15500D02*
D03*
X130500D02*
D03*
X150500D02*
D03*
X160500D02*
D03*
X32500Y174157D02*
D03*
X69000Y15500D02*
D03*
X59000D02*
D03*
X133500Y119500D02*
D03*
X123500D02*
D03*
X113500D02*
D03*
X150500Y29000D02*
D03*
X160500D02*
D03*
X33500Y318000D02*
D03*
X43000Y384000D02*
D03*
X94657Y383500D02*
D03*
D70*
X32500Y193843D02*
D03*
X33500Y337685D02*
D03*
D71*
X271343Y181500D02*
D03*
X261500D02*
D03*
X251264D02*
D03*
D72*
X102000Y46500D02*
D03*
X98500Y96500D02*
D03*
X207500Y70000D02*
D03*
X91500Y335500D02*
D03*
X30500Y277500D02*
D03*
X104500Y250500D02*
D03*
X62000Y277000D02*
D03*
X84000Y261500D02*
D03*
X66500D02*
D03*
X149500Y295500D02*
D03*
X147000Y302500D02*
D03*
X135000Y302000D02*
D03*
X140000Y351000D02*
D03*
X128500Y349000D02*
D03*
X169500Y72500D02*
D03*
X151000Y71000D02*
D03*
X495500Y237800D02*
D03*
X489100Y224500D02*
D03*
X475500Y302858D02*
D03*
X470500Y278400D02*
D03*
X173000Y177400D02*
D03*
X144200Y338500D02*
D03*
X193900Y58100D02*
D03*
X128500Y67500D02*
D03*
X121200Y177800D02*
D03*
X220000Y98300D02*
D03*
X249000Y146464D02*
D03*
X412000Y188500D02*
D03*
X457700Y193500D02*
D03*
X511000Y202000D02*
D03*
Y184500D02*
D03*
X435000Y185500D02*
D03*
X481500Y197000D02*
D03*
X528000Y196300D02*
D03*
X142000Y61500D02*
D03*
X238000Y49200D02*
D03*
X206900Y50000D02*
D03*
X105600Y79500D02*
D03*
X228200Y52000D02*
D03*
X217615Y103805D02*
D03*
X120000Y290300D02*
D03*
X145500Y345000D02*
D03*
X27700Y294900D02*
D03*
X73500Y281000D02*
D03*
X45000Y31500D02*
D03*
X107800Y73500D02*
D03*
X106000Y98000D02*
D03*
X149800Y83700D02*
D03*
X92110Y78300D02*
D03*
X62800Y299700D02*
D03*
X118000Y297500D02*
D03*
X189000Y75000D02*
D03*
Y130500D02*
D03*
X86000Y250300D02*
D03*
X74000Y69000D02*
D03*
X104000Y210500D02*
D03*
X85200Y309200D02*
D03*
X108800Y335800D02*
D03*
X103500Y40000D02*
D03*
X196600Y73500D02*
D03*
X210900Y101700D02*
D03*
X69700Y249100D02*
D03*
X77400Y246900D02*
D03*
Y212400D02*
D03*
X253000Y21500D02*
D03*
D73*
X270000D02*
D03*
X269500Y66500D02*
D03*
X258500Y151500D02*
D03*
X221500Y138500D02*
D03*
X228000Y187000D02*
D03*
X187000Y204500D02*
D03*
M02*
